<svg width="500" height="400" viewBox="0 0 500 400" xmlns="http://www.w3.org/2000/svg">
  <!-- Background -->
  <rect width="500" height="400" fill="#e6e9ff" rx="20" ry="20" />
  
  <!-- Decorative elements -->
  <circle cx="400" cy="80" r="60" fill="#4c6fff" opacity="0.1" />
  <circle cx="100" cy="350" r="40" fill="#4c6fff" opacity="0.1" />
  
  <!-- Company building representation -->
  <rect x="150" y="180" width="200" height="150" fill="white" stroke="#4c6fff" stroke-width="2" />
  <rect x="230" y="280" width="40" height="50" fill="white" stroke="#4c6fff" stroke-width="2" />
  <rect x="170" y="210" width="40" height="40" fill="#f0f4ff" stroke="#4c6fff" stroke-width="1" />
  <rect x="240" y="210" width="40" height="40" fill="#f0f4ff" stroke="#4c6fff" stroke-width="1" />
  <rect x="290" y="210" width="40" height="40" fill="#f0f4ff" stroke="#4c6fff" stroke-width="1" />
  
  <!-- Roof -->
  <polygon points="150,180 250,120 350,180" fill="#4c6fff" opacity="0.3" stroke="#4c6fff" stroke-width="2" />
  
  <!-- People silhouettes -->
  <circle cx="200" cy="340" r="10" fill="#4c6fff" />
  <rect x="195" y="350" width="10" height="20" fill="#4c6fff" />
  
  <circle cx="300" cy="340" r="10" fill="#4c6fff" />
  <rect x="295" y="350" width="10" height="20" fill="#4c6fff" />
  
  <circle cx="250" cy="345" r="10" fill="#4c6fff" />
  <rect x="245" y="355" width="10" height="15" fill="#4c6fff" />
  
  <!-- Sun -->
  <circle cx="400" cy="100" r="30" fill="#ffcc00" opacity="0.8" />
  <line x1="400" y1="50" x2="400" y2="70" stroke="#ffcc00" stroke-width="3" />
  <line x1="400" y1="130" x2="400" y2="150" stroke="#ffcc00" stroke-width="3" />
  <line x1="350" y1="100" x2="370" y2="100" stroke="#ffcc00" stroke-width="3" />
  <line x1="430" y1="100" x2="450" y2="100" stroke="#ffcc00" stroke-width="3" />
  <line x1="365" y1="65" x2="380" y2="80" stroke="#ffcc00" stroke-width="3" />
  <line x1="420" y1="120" x2="435" y2="135" stroke="#ffcc00" stroke-width="3" />
  <line x1="365" y1="135" x2="380" y2="120" stroke="#ffcc00" stroke-width="3" />
  <line x1="420" y1="80" x2="435" y2="65" stroke="#ffcc00" stroke-width="3" />
</svg>