<svg width="200" height="200" viewBox="0 0 200 200" xmlns="http://www.w3.org/2000/svg">
  <!-- Background Circle -->
  <circle cx="100" cy="100" r="100" fill="#f0f4ff" />
  
  <!-- Gradient Overlay -->
  <circle cx="100" cy="100" r="100" fill="url(#avatarGrad)" />
  
  <!-- Definitions -->
  <defs>
    <linearGradient id="avatarGrad" x1="0%" y1="0%" x2="100%" y2="100%">
      <stop offset="0%" style="stop-color:#4c6fff;stop-opacity:0.05" />
      <stop offset="100%" style="stop-color:#7000ff;stop-opacity:0.1" />
    </linearGradient>
    <linearGradient id="skinTone" x1="0%" y1="0%" x2="100%" y2="0%">
      <stop offset="0%" style="stop-color:#e6c7a5;stop-opacity:1" />
      <stop offset="100%" style="stop-color:#dab78e;stop-opacity:1" />
    </linearGradient>
  </defs>
  
  <!-- Man Avatar with Business Professional Style -->
  
  <!-- Neck -->
  <path d="M85,132 C85,132 100,140 115,132 L115,160 L85,160 Z" fill="url(#skinTone)" />
  
  <!-- Face -->
  <circle cx="100" cy="90" r="35" fill="url(#skinTone)" />
  
  <!-- Hair -->
  <path d="M70,75 C70,55 80,45 100,45 C120,45 130,55 130,75 C130,80 130,85 125,90 
           C120,95 115,100 115,100 L85,100 C85,100 80,95 75,90 C70,85 70,80 70,75 Z" 
        fill="#3a3a3a" />
        
  <!-- Detailed Hair Styling -->
  <path d="M70,75 C70,60 85,50 100,50 C115,50 130,60 130,75 Z" fill="#2d2d2d" />
  
  <!-- Eyes -->
  <ellipse cx="85" cy="85" rx="5" ry="3" fill="#363636" />
  <ellipse cx="115" cy="85" rx="5" ry="3" fill="#363636" />
  
  <!-- Eyebrows -->
  <path d="M80,78 C80,78 85,75 90,78" stroke="#2d2d2d" stroke-width="2" fill="none" />
  <path d="M110,78 C110,78 115,75 120,78" stroke="#2d2d2d" stroke-width="2" fill="none" />
  
  <!-- Nose -->
  <path d="M100,90 C100,90 103,97 100,100 C97,97 100,90 100,90" fill="#dab78e" />
  
  <!-- Mouth -->
  <path d="M90,115 C90,115 100,120 110,115" stroke="#c97a7e" stroke-width="1.5" fill="none" />
  
  <!-- Glasses -->
  <rect x="75" y="80" width="20" height="12" rx="5" ry="5" stroke="#444" stroke-width="2" fill="none" />
  <rect x="105" y="80" width="20" height="12" rx="5" ry="5" stroke="#444" stroke-width="2" fill="none" />
  <line x1="95" y1="86" x2="105" y2="86" stroke="#444" stroke-width="2" />
  <line x1="75" y1="86" x2="65" y2="82" stroke="#444" stroke-width="2" />
  <line x1="125" y1="86" x2="135" y2="82" stroke="#444" stroke-width="2" />
  
  <!-- Facial Hair -->
  <path d="M85,110 C85,110 100,125 115,110 C115,110 110,118 100,118 C90,118 85,110 85,110" fill="#3a3a3a" opacity="0.7" />
  
  <!-- Business Suit -->
  <path d="M60,135 L60,200 L140,200 L140,135 L130,145 L100,160 L70,145 Z" fill="#2c3e50" />
  <path d="M85,132 L85,160 L115,160 L115,132 C115,132 100,140 85,132 Z" fill="#ecf0f1" />
  <path d="M95,132 L105,132 L105,160 L95,160 Z" fill="#3498db" />
  <path d="M60,140 L70,145 L70,200 L60,200 Z" fill="#34495e" />
  <path d="M140,140 L130,145 L130,200 L140,200 Z" fill="#34495e" />
</svg>