<svg width="500" height="400" viewBox="0 0 500 400" xmlns="http://www.w3.org/2000/svg">
  <!-- Background -->
  <rect width="500" height="400" fill="#dce4ff" rx="20" ry="20" />
  
  <!-- Decorative elements -->
  <circle cx="150" cy="100" r="50" fill="#4c6fff" opacity="0.2" />
  <circle cx="400" cy="300" r="70" fill="#4c6fff" opacity="0.15" />
  <circle cx="100" cy="300" r="30" fill="#4c6fff" opacity="0.1" />
  
  <!-- Main graphic elements -->
  <rect x="120" y="150" width="260" height="140" rx="10" ry="10" fill="white" stroke="#4c6fff" stroke-width="2" />
  <rect x="140" y="170" width="220" height="20" rx="5" ry="5" fill="#f0f4ff" />
  <rect x="140" y="200" width="180" height="20" rx="5" ry="5" fill="#f0f4ff" />
  <rect x="140" y="230" width="200" height="20" rx="5" ry="5" fill="#f0f4ff" />
  
  <!-- Decorative accent -->
  <path d="M380,80 Q430,110 420,170" stroke="#4c6fff" stroke-width="3" fill="none" />
  <path d="M80,220 Q50,260 70,320" stroke="#4c6fff" stroke-width="3" fill="none" />
  
  <!-- Abstract data/graph representation -->
  <polyline points="140,100 180,80 220,110 260,70 300,90 340,60" stroke="#4c6fff" stroke-width="2" fill="none" />
  <circle cx="140" cy="100" r="4" fill="#4c6fff" />
  <circle cx="180" cy="80" r="4" fill="#4c6fff" />
  <circle cx="220" cy="110" r="4" fill="#4c6fff" />
  <circle cx="260" cy="70" r="4" fill="#4c6fff" />
  <circle cx="300" cy="90" r="4" fill="#4c6fff" />
  <circle cx="340" cy="60" r="4" fill="#4c6fff" />
</svg>